<?xml version="1.0" encoding="UTF-8" standalone="no"?>
<!DOCTYPE svg PUBLIC "-//W3C//DTD SVG 1.1//EN"
 "http://www.w3.org/Graphics/SVG/1.1/DTD/svg11.dtd">
<!-- Generated by graphviz version 2.28.0 (20110509.1545)
 -->
<!-- Title: RTX::TimeSeries Pages: 1 -->
<!--zoomable 146 -->
<svg id="main" version="1.1" xmlns="http://www.w3.org/2000/svg" xmlns:xlink="http://www.w3.org/1999/xlink" xml:space="preserve" onload="init(evt)">
        <defs>
                <circle id="rim" cx="0" cy="0" r="7"/>
                <circle id="rim2" cx="0" cy="0" r="3.5"/>
                <g id="zoomPlus">
                        <use xlink:href="#rim" fill="#404040">
                                <set attributeName="fill" to="#808080" begin="zoomplus.mouseover" end="zoomplus.mouseout"/>
                        </use>
                        <path d="M-4,0h8M0,-4v8" fill="none" stroke="white" stroke-width="1.5" pointer-events="none"/>
                </g>
                <g id="zoomMin">
                        <use xlink:href="#rim" fill="#404040">
                                <set attributeName="fill" to="#808080" begin="zoomminus.mouseover" end="zoomminus.mouseout"/>
                        </use>
                        <path d="M-4,0h8" fill="none" stroke="white" stroke-width="1.5" pointer-events="none"/>
                </g>
                <g id="dirArrow">
                        <path fill="none" stroke="white" stroke-width="1.5" d="M0,-3.0v7 M-2.5,-0.5L0,-3.0L2.5,-0.5"/>
                </g>
               <g id="resetDef">
                       <use xlink:href="#rim2" fill="#404040">
                               <set attributeName="fill" to="#808080" begin="reset.mouseover" end="reset.mouseout"/>
                       </use>
               </g>
        </defs>

<script type="text/javascript">
var viewWidth = 583;
var viewHeight = 146;
var sectionId = 'dynsection-0';
</script>
<script xlink:href="svgpan.js"/>
<svg id="graph" class="graph">
<g id="viewport">
<title>RTX::TimeSeries</title>
<polygon fill="white" stroke="white" points="-4,5 -4,-142 580,-142 580,5 -4,5"/>
<!-- Node1 -->
<g id="node1" class="node"><title>Node1</title>
<polygon fill="#bfbfbf" stroke="black" points="167.209,-117 167.209,-137 258.791,-137 258.791,-117 167.209,-117"/>
<text text-anchor="middle" x="213" y="-123" font-family="Helvetica,sans-Serif" font-size="10.00">RTX::TimeSeries</text>
</g>
<!-- Node2 -->
<g id="node3" class="node"><title>Node2</title>
<a xlink:href="class_r_t_x_1_1_aggregator_time_series.html" target="_top" xlink:title="Aggregates (and optionally scales) arbitrary many input time series.">
<polygon fill="white" stroke="black" points="-0.529297,-59 -0.529297,-79 140.529,-79 140.529,-59 -0.529297,-59"/>
<text text-anchor="middle" x="70" y="-65" font-family="Helvetica,sans-Serif" font-size="10.00">RTX::AggregatorTimeSeries</text>
</a>
</g>
<!-- Node1&#45;&gt;Node2 -->
<g id="edge2" class="edge"><title>Node1&#45;&gt;Node2</title>
<path fill="none" stroke="midnightblue" d="M180.077,-113.107C153.531,-102.711 116.859,-88.3505 93.2837,-79.1181"/>
<polygon fill="midnightblue" stroke="midnightblue" points="179.119,-116.491 189.706,-116.878 181.671,-109.972 179.119,-116.491"/>
</g>
<!-- Node3 -->
<g id="node5" class="node"><title>Node3</title>
<a xlink:href="class_r_t_x_1_1_constant_series.html" target="_top" xlink:title="RTX::ConstantSeries">
<polygon fill="white" stroke="black" points="158.125,-59 158.125,-79 267.875,-79 267.875,-59 158.125,-59"/>
<text text-anchor="middle" x="213" y="-65" font-family="Helvetica,sans-Serif" font-size="10.00">RTX::ConstantSeries</text>
</a>
</g>
<!-- Node1&#45;&gt;Node3 -->
<g id="edge4" class="edge"><title>Node1&#45;&gt;Node3</title>
<path fill="none" stroke="midnightblue" d="M213,-106.707C213,-97.3384 213,-86.5262 213,-79.0752"/>
<polygon fill="midnightblue" stroke="midnightblue" points="209.5,-106.753 213,-116.753 216.5,-106.753 209.5,-106.753"/>
</g>
<!-- Node4 -->
<g id="node7" class="node"><title>Node4</title>
<a xlink:href="class_r_t_x_1_1_modular_time_series.html" target="_top" xlink:title="A Time Series class that allows a single upstream TimeSeries.">
<polygon fill="white" stroke="black" points="286.146,-59 286.146,-79 413.854,-79 413.854,-59 286.146,-59"/>
<text text-anchor="middle" x="350" y="-65" font-family="Helvetica,sans-Serif" font-size="10.00">RTX::ModularTimeSeries</text>
</a>
</g>
<!-- Node1&#45;&gt;Node4 -->
<g id="edge6" class="edge"><title>Node1&#45;&gt;Node4</title>
<path fill="none" stroke="midnightblue" d="M244.879,-112.969C270.283,-102.585 305.206,-88.3099 327.693,-79.1181"/>
<polygon fill="midnightblue" stroke="midnightblue" points="243.249,-109.854 235.316,-116.878 245.897,-116.334 243.249,-109.854"/>
</g>
<!-- Node5 -->
<g id="node9" class="node"><title>Node5</title>
<a xlink:href="class_r_t_x_1_1_curve_function.html" target="_top" xlink:title="A Curve Function Class to perform arbitrary mapping of values.">
<polygon fill="white" stroke="black" points="109.795,-1 109.795,-21 216.205,-21 216.205,-1 109.795,-1"/>
<text text-anchor="middle" x="163" y="-7" font-family="Helvetica,sans-Serif" font-size="10.00">RTX::CurveFunction</text>
</a>
</g>
<!-- Node4&#45;&gt;Node5 -->
<g id="edge8" class="edge"><title>Node4&#45;&gt;Node5</title>
<path fill="none" stroke="midnightblue" d="M309.64,-55.9136C274.637,-45.4313 224.758,-30.4944 193.138,-21.0253"/>
<polygon fill="midnightblue" stroke="midnightblue" points="308.955,-59.362 319.539,-58.878 310.963,-52.6563 308.955,-59.362"/>
</g>
<!-- Node6 -->
<g id="node11" class="node"><title>Node6</title>
<a xlink:href="class_r_t_x_1_1_first_derivative.html" target="_top" xlink:title="RTX::FirstDerivative">
<polygon fill="white" stroke="black" points="234.361,-1 234.361,-21 339.639,-21 339.639,-1 234.361,-1"/>
<text text-anchor="middle" x="287" y="-7" font-family="Helvetica,sans-Serif" font-size="10.00">RTX::FirstDerivative</text>
</a>
</g>
<!-- Node4&#45;&gt;Node6 -->
<g id="edge10" class="edge"><title>Node4&#45;&gt;Node6</title>
<path fill="none" stroke="midnightblue" d="M331.996,-51.9967C320.718,-41.9719 306.594,-29.4171 297.21,-21.0752"/>
<polygon fill="midnightblue" stroke="midnightblue" points="329.797,-54.725 339.597,-58.7527 334.448,-49.4931 329.797,-54.725"/>
</g>
<!-- Node7 -->
<g id="node13" class="node"><title>Node7</title>
<a xlink:href="class_r_t_x_1_1_moving_average.html" target="_top" xlink:title="RTX::MovingAverage">
<polygon fill="white" stroke="black" points="357.656,-1 357.656,-21 468.344,-21 468.344,-1 357.656,-1"/>
<text text-anchor="middle" x="413" y="-7" font-family="Helvetica,sans-Serif" font-size="10.00">RTX::MovingAverage</text>
</a>
</g>
<!-- Node4&#45;&gt;Node7 -->
<g id="edge12" class="edge"><title>Node4&#45;&gt;Node7</title>
<path fill="none" stroke="midnightblue" d="M368.004,-51.9967C379.282,-41.9719 393.406,-29.4171 402.79,-21.0752"/>
<polygon fill="midnightblue" stroke="midnightblue" points="365.552,-49.4931 360.403,-58.7527 370.203,-54.725 365.552,-49.4931"/>
</g>
<!-- Node8 -->
<g id="node15" class="node"><title>Node8</title>
<a xlink:href="class_r_t_x_1_1_resampler.html" target="_top" xlink:title="RTX::Resampler">
<polygon fill="white" stroke="black" points="486.135,-1 486.135,-21 575.865,-21 575.865,-1 486.135,-1"/>
<text text-anchor="middle" x="531" y="-7" font-family="Helvetica,sans-Serif" font-size="10.00">RTX::Resampler</text>
</a>
</g>
<!-- Node4&#45;&gt;Node8 -->
<g id="edge14" class="edge"><title>Node4&#45;&gt;Node8</title>
<path fill="none" stroke="midnightblue" d="M389.065,-55.9136C422.945,-45.4313 471.223,-30.4944 501.829,-21.0253"/>
<polygon fill="midnightblue" stroke="midnightblue" points="388.002,-52.5786 379.484,-58.878 390.071,-59.2659 388.002,-52.5786"/>
</g>
</g>
</svg>
        <g id="navigator" transform="translate(0 0)" fill="#404254">
                <rect fill="#f2f5e9" fill-opacity="0.5" stroke="#606060" stroke-width=".5" x="0" y="0" width="60" height="60"/>
                <use id="zoomplus" xlink:href="#zoomPlus" x="17" y="9" onmousedown="handleZoom(evt,'in')"/>
                <use id="zoomminus" xlink:href="#zoomMin" x="42" y="9" onmousedown="handleZoom(evt,'out')"/>
                <use id="reset" xlink:href="#resetDef" x="30" y="36" onmousedown="handleReset()"/>
                <g id="arrowUp" xlink:href="#dirArrow" transform="translate(30 24)" onmousedown="handlePan(0,-1)">
                  <use xlink:href="#rim" fill="#404040">
                        <set attributeName="fill" to="#808080" begin="arrowUp.mouseover" end="arrowUp.mouseout"/>
                  </use>
                  <path fill="none" stroke="white" stroke-width="1.5" d="M0,-3.0v7 M-2.5,-0.5L0,-3.0L2.5,-0.5"/>
                </g>
                <g id="arrowRight" xlink:href="#dirArrow" transform="rotate(90) translate(36 -43)" onmousedown="handlePan(1,0)">
                  <use xlink:href="#rim" fill="#404040">
                        <set attributeName="fill" to="#808080" begin="arrowRight.mouseover" end="arrowRight.mouseout"/>
                  </use>
                  <path fill="none" stroke="white" stroke-width="1.5" d="M0,-3.0v7 M-2.5,-0.5L0,-3.0L2.5,-0.5"/>
                </g>
                <g id="arrowDown" xlink:href="#dirArrow" transform="rotate(180) translate(-30 -48)" onmousedown="handlePan(0,1)">
                  <use xlink:href="#rim" fill="#404040">
                        <set attributeName="fill" to="#808080" begin="arrowDown.mouseover" end="arrowDown.mouseout"/>
                  </use>
                  <path fill="none" stroke="white" stroke-width="1.5" d="M0,-3.0v7 M-2.5,-0.5L0,-3.0L2.5,-0.5"/>
                </g>
                <g id="arrowLeft" xlink:href="#dirArrow" transform="rotate(270) translate(-36 17)" onmousedown="handlePan(-1,0)">
                  <use xlink:href="#rim" fill="#404040">
                        <set attributeName="fill" to="#808080" begin="arrowLeft.mouseover" end="arrowLeft.mouseout"/>
                  </use>
                  <path fill="none" stroke="white" stroke-width="1.5" d="M0,-3.0v7 M-2.5,-0.5L0,-3.0L2.5,-0.5"/>
                </g>
        </g>
        <svg viewBox="0 0 15 15" width="100%" height="30px" preserveAspectRatio="xMaxYMin meet">
         <g id="arrow_out" transform="scale(0.3 0.3)">
          <a xlink:href="class_r_t_x_1_1_time_series__inherit__graph_org.svg" target="_base">
           <rect id="button" ry="5" rx="5" y="6" x="6" height="38" width="38"
                fill="#f2f5e9" fill-opacity="0.5" stroke="#606060" stroke-width="1.0"/>
           <path id="arrow"
             d="M 11.500037,31.436501 C 11.940474,20.09759 22.043105,11.32322 32.158766,21.979434 L 37.068811,17.246167 C 37.068811,17.246167 37.088388,32 37.088388,32 L 22.160133,31.978069 C 22.160133,31.978069 26.997745,27.140456 26.997745,27.140456 C 18.528582,18.264221 13.291696,25.230495 11.500037,31.436501 z"
             style="fill:#404040;"/>
          </a>
         </g>
        </svg>
</svg>
