<?xml version="1.0" encoding="UTF-8" standalone="no"?>
<!DOCTYPE svg PUBLIC "-//W3C//DTD SVG 1.1//EN"
 "http://www.w3.org/Graphics/SVG/1.1/DTD/svg11.dtd">
<!-- Generated by graphviz version 2.28.0 (20110509.1545)
 -->
<!-- Title: RTX::DbPointRecord Pages: 1 -->
<svg width="273pt" height="146pt"
 viewBox="0.00 0.00 273.00 146.00" xmlns="http://www.w3.org/2000/svg" xmlns:xlink="http://www.w3.org/1999/xlink">
<g id="graph1" class="graph" transform="scale(1 1) rotate(0) translate(4 142)">
<title>RTX::DbPointRecord</title>
<polygon fill="white" stroke="white" points="-4,5 -4,-142 270,-142 270,5 -4,5"/>
<!-- Node1 -->
<g id="node1" class="node"><title>Node1</title>
<polygon fill="#bfbfbf" stroke="black" points="77.4033,-59 77.4033,-79 186.597,-79 186.597,-59 77.4033,-59"/>
<text text-anchor="middle" x="132" y="-65" font-family="Helvetica,sans-Serif" font-size="10.00">RTX::DbPointRecord</text>
</g>
<!-- Node3 -->
<g id="node5" class="node"><title>Node3</title>
<a xlink:href="class_r_t_x_1_1_mysql_point_record.html" target="_top" xlink:title="A persistence layer for MySQL databases.">
<polygon fill="white" stroke="black" points="-0.261719,-1 -0.261719,-21 122.262,-21 122.262,-1 -0.261719,-1"/>
<text text-anchor="middle" x="61" y="-7" font-family="Helvetica,sans-Serif" font-size="10.00">RTX::MysqlPointRecord</text>
</a>
</g>
<!-- Node1&#45;&gt;Node3 -->
<g id="edge4" class="edge"><title>Node1&#45;&gt;Node3</title>
<path fill="none" stroke="midnightblue" d="M112.079,-52.288C99.3097,-42.2161 83.1851,-29.4981 72.506,-21.0752"/>
<polygon fill="midnightblue" stroke="midnightblue" points="110.257,-55.3079 120.276,-58.7527 114.592,-49.8118 110.257,-55.3079"/>
</g>
<!-- Node4 -->
<g id="node7" class="node"><title>Node4</title>
<a xlink:href="class_r_t_x_1_1_scada_point_record.html" target="_top" xlink:title="A persistence class for SCADA databases.">
<polygon fill="white" stroke="black" points="140.618,-1 140.618,-21 265.382,-21 265.382,-1 140.618,-1"/>
<text text-anchor="middle" x="203" y="-7" font-family="Helvetica,sans-Serif" font-size="10.00">RTX::ScadaPointRecord</text>
</a>
</g>
<!-- Node1&#45;&gt;Node4 -->
<g id="edge6" class="edge"><title>Node1&#45;&gt;Node4</title>
<path fill="none" stroke="midnightblue" d="M151.921,-52.288C164.69,-42.2161 180.815,-29.4981 191.494,-21.0752"/>
<polygon fill="midnightblue" stroke="midnightblue" points="149.408,-49.8118 143.724,-58.7527 153.743,-55.3079 149.408,-49.8118"/>
</g>
<!-- Node2 -->
<g id="node2" class="node"><title>Node2</title>
<a xlink:href="class_r_t_x_1_1_point_record.html" target="_top" xlink:title="A Point Record Class for storing and retrieving Points.">
<polygon fill="white" stroke="black" points="83.7949,-117 83.7949,-137 180.205,-137 180.205,-117 83.7949,-117"/>
<text text-anchor="middle" x="132" y="-123" font-family="Helvetica,sans-Serif" font-size="10.00">RTX::PointRecord</text>
</a>
</g>
<!-- Node2&#45;&gt;Node1 -->
<g id="edge2" class="edge"><title>Node2&#45;&gt;Node1</title>
<path fill="none" stroke="midnightblue" d="M132,-106.707C132,-97.3384 132,-86.5262 132,-79.0752"/>
<polygon fill="midnightblue" stroke="midnightblue" points="128.5,-106.753 132,-116.753 135.5,-106.753 128.5,-106.753"/>
</g>
</g>
</svg>
