<?xml version="1.0" encoding="UTF-8" standalone="no"?>
<!DOCTYPE svg PUBLIC "-//W3C//DTD SVG 1.1//EN"
 "http://www.w3.org/Graphics/SVG/1.1/DTD/svg11.dtd">
<!-- Generated by graphviz version 2.28.0 (20110509.1545)
 -->
<!-- Title: RTX::ScadaPointRecord Pages: 1 -->
<svg width="132pt" height="146pt"
 viewBox="0.00 0.00 132.00 146.00" xmlns="http://www.w3.org/2000/svg" xmlns:xlink="http://www.w3.org/1999/xlink">
<g id="graph1" class="graph" transform="scale(1 1) rotate(0) translate(4 142)">
<title>RTX::ScadaPointRecord</title>
<polygon fill="white" stroke="white" points="-4,5 -4,-142 129,-142 129,5 -4,5"/>
<!-- Node1 -->
<g id="node1" class="node"><title>Node1</title>
<polygon fill="#bfbfbf" stroke="black" points="-0.382324,-1 -0.382324,-21 124.382,-21 124.382,-1 -0.382324,-1"/>
<text text-anchor="middle" x="62" y="-7" font-family="Helvetica,sans-Serif" font-size="10.00">RTX::ScadaPointRecord</text>
</g>
<!-- Node2 -->
<g id="node2" class="node"><title>Node2</title>
<a xlink:href="class_r_t_x_1_1_db_point_record.html" target="_top" xlink:title="A persistence layer for databases.">
<polygon fill="white" stroke="black" points="7.40332,-59 7.40332,-79 116.597,-79 116.597,-59 7.40332,-59"/>
<text text-anchor="middle" x="62" y="-65" font-family="Helvetica,sans-Serif" font-size="10.00">RTX::DbPointRecord</text>
</a>
</g>
<!-- Node2&#45;&gt;Node1 -->
<g id="edge2" class="edge"><title>Node2&#45;&gt;Node1</title>
<path fill="none" stroke="midnightblue" d="M62,-48.7065C62,-39.3384 62,-28.5262 62,-21.0752"/>
<polygon fill="midnightblue" stroke="midnightblue" points="58.5001,-48.7527 62,-58.7527 65.5001,-48.7528 58.5001,-48.7527"/>
</g>
<!-- Node3 -->
<g id="node4" class="node"><title>Node3</title>
<a xlink:href="class_r_t_x_1_1_point_record.html" target="_top" xlink:title="A Point Record Class for storing and retrieving Points.">
<polygon fill="white" stroke="black" points="13.7949,-117 13.7949,-137 110.205,-137 110.205,-117 13.7949,-117"/>
<text text-anchor="middle" x="62" y="-123" font-family="Helvetica,sans-Serif" font-size="10.00">RTX::PointRecord</text>
</a>
</g>
<!-- Node3&#45;&gt;Node2 -->
<g id="edge4" class="edge"><title>Node3&#45;&gt;Node2</title>
<path fill="none" stroke="midnightblue" d="M62,-106.707C62,-97.3384 62,-86.5262 62,-79.0752"/>
<polygon fill="midnightblue" stroke="midnightblue" points="58.5001,-106.753 62,-116.753 65.5001,-106.753 58.5001,-106.753"/>
</g>
</g>
</svg>
