<?xml version="1.0" encoding="UTF-8" standalone="no"?>
<!DOCTYPE svg PUBLIC "-//W3C//DTD SVG 1.1//EN"
 "http://www.w3.org/Graphics/SVG/1.1/DTD/svg11.dtd">
<!-- Generated by graphviz version 2.28.0 (20110509.1545)
 -->
<!-- Title: RTX::ModularTimeSeries Pages: 1 -->
<svg width="473pt" height="146pt"
 viewBox="0.00 0.00 473.00 146.00" xmlns="http://www.w3.org/2000/svg" xmlns:xlink="http://www.w3.org/1999/xlink">
<g id="graph1" class="graph" transform="scale(1 1) rotate(0) translate(4 142)">
<title>RTX::ModularTimeSeries</title>
<polygon fill="white" stroke="white" points="-4,5 -4,-142 470,-142 470,5 -4,5"/>
<!-- Node1 -->
<g id="node1" class="node"><title>Node1</title>
<polygon fill="#bfbfbf" stroke="black" points="176.146,-59 176.146,-79 303.854,-79 303.854,-59 176.146,-59"/>
<text text-anchor="middle" x="240" y="-65" font-family="Helvetica,sans-Serif" font-size="10.00">RTX::ModularTimeSeries</text>
</g>
<!-- Node3 -->
<g id="node5" class="node"><title>Node3</title>
<a xlink:href="class_r_t_x_1_1_curve_function.html" target="_top" xlink:title="A Curve Function Class to perform arbitrary mapping of values.">
<polygon fill="white" stroke="black" points="-0.205078,-1 -0.205078,-21 106.205,-21 106.205,-1 -0.205078,-1"/>
<text text-anchor="middle" x="53" y="-7" font-family="Helvetica,sans-Serif" font-size="10.00">RTX::CurveFunction</text>
</a>
</g>
<!-- Node1&#45;&gt;Node3 -->
<g id="edge4" class="edge"><title>Node1&#45;&gt;Node3</title>
<path fill="none" stroke="midnightblue" d="M199.64,-55.9136C164.637,-45.4313 114.758,-30.4944 83.1381,-21.0253"/>
<polygon fill="midnightblue" stroke="midnightblue" points="198.955,-59.362 209.539,-58.878 200.963,-52.6563 198.955,-59.362"/>
</g>
<!-- Node4 -->
<g id="node7" class="node"><title>Node4</title>
<a xlink:href="class_r_t_x_1_1_first_derivative.html" target="_top" xlink:title="RTX::FirstDerivative">
<polygon fill="white" stroke="black" points="124.361,-1 124.361,-21 229.639,-21 229.639,-1 124.361,-1"/>
<text text-anchor="middle" x="177" y="-7" font-family="Helvetica,sans-Serif" font-size="10.00">RTX::FirstDerivative</text>
</a>
</g>
<!-- Node1&#45;&gt;Node4 -->
<g id="edge6" class="edge"><title>Node1&#45;&gt;Node4</title>
<path fill="none" stroke="midnightblue" d="M221.996,-51.9967C210.718,-41.9719 196.594,-29.4171 187.21,-21.0752"/>
<polygon fill="midnightblue" stroke="midnightblue" points="219.797,-54.725 229.597,-58.7527 224.448,-49.4931 219.797,-54.725"/>
</g>
<!-- Node5 -->
<g id="node9" class="node"><title>Node5</title>
<a xlink:href="class_r_t_x_1_1_moving_average.html" target="_top" xlink:title="RTX::MovingAverage">
<polygon fill="white" stroke="black" points="247.656,-1 247.656,-21 358.344,-21 358.344,-1 247.656,-1"/>
<text text-anchor="middle" x="303" y="-7" font-family="Helvetica,sans-Serif" font-size="10.00">RTX::MovingAverage</text>
</a>
</g>
<!-- Node1&#45;&gt;Node5 -->
<g id="edge8" class="edge"><title>Node1&#45;&gt;Node5</title>
<path fill="none" stroke="midnightblue" d="M258.004,-51.9967C269.282,-41.9719 283.406,-29.4171 292.79,-21.0752"/>
<polygon fill="midnightblue" stroke="midnightblue" points="255.552,-49.4931 250.403,-58.7527 260.203,-54.725 255.552,-49.4931"/>
</g>
<!-- Node6 -->
<g id="node11" class="node"><title>Node6</title>
<a xlink:href="class_r_t_x_1_1_resampler.html" target="_top" xlink:title="RTX::Resampler">
<polygon fill="white" stroke="black" points="376.135,-1 376.135,-21 465.865,-21 465.865,-1 376.135,-1"/>
<text text-anchor="middle" x="421" y="-7" font-family="Helvetica,sans-Serif" font-size="10.00">RTX::Resampler</text>
</a>
</g>
<!-- Node1&#45;&gt;Node6 -->
<g id="edge10" class="edge"><title>Node1&#45;&gt;Node6</title>
<path fill="none" stroke="midnightblue" d="M279.065,-55.9136C312.945,-45.4313 361.223,-30.4944 391.829,-21.0253"/>
<polygon fill="midnightblue" stroke="midnightblue" points="278.002,-52.5786 269.484,-58.878 280.071,-59.2659 278.002,-52.5786"/>
</g>
<!-- Node2 -->
<g id="node2" class="node"><title>Node2</title>
<a xlink:href="class_r_t_x_1_1_time_series.html" target="_top" xlink:title="Responsible for keeping a container of points &#45; also adding, retrieving, and getting information abou...">
<polygon fill="white" stroke="black" points="194.209,-117 194.209,-137 285.791,-137 285.791,-117 194.209,-117"/>
<text text-anchor="middle" x="240" y="-123" font-family="Helvetica,sans-Serif" font-size="10.00">RTX::TimeSeries</text>
</a>
</g>
<!-- Node2&#45;&gt;Node1 -->
<g id="edge2" class="edge"><title>Node2&#45;&gt;Node1</title>
<path fill="none" stroke="midnightblue" d="M240,-106.707C240,-97.3384 240,-86.5262 240,-79.0752"/>
<polygon fill="midnightblue" stroke="midnightblue" points="236.5,-106.753 240,-116.753 243.5,-106.753 236.5,-106.753"/>
</g>
</g>
</svg>
