<?xml version="1.0" encoding="UTF-8" standalone="no"?>
<!DOCTYPE svg PUBLIC "-//W3C//DTD SVG 1.1//EN"
 "http://www.w3.org/Graphics/SVG/1.1/DTD/svg11.dtd">
<!-- Generated by graphviz version 2.28.0 (20110509.1545)
 -->
<!-- Title: Graphical Class Hierarchy Pages: 1 -->
<svg width="412pt" height="67pt"
 viewBox="0.00 0.00 412.00 67.00" xmlns="http://www.w3.org/2000/svg" xmlns:xlink="http://www.w3.org/1999/xlink">
<g id="graph1" class="graph" transform="scale(1 1) rotate(0) translate(4 63)">
<title>Graphical Class Hierarchy</title>
<polygon fill="white" stroke="white" points="-4,5 -4,-63 409,-63 409,5 -4,5"/>
<!-- Node1 -->
<g id="node1" class="node"><title>Node1</title>
<a xlink:href="class_r_t_x_1_1_point_record.html" target="_top" xlink:title="A Point Record Class for storing and retrieving Points.">
<polygon fill="white" stroke="black" points="-0.205078,-19 -0.205078,-39 96.2051,-39 96.2051,-19 -0.205078,-19"/>
<text text-anchor="middle" x="48" y="-25" font-family="Helvetica,sans-Serif" font-size="10.00">RTX::PointRecord</text>
</a>
</g>
<!-- Node2 -->
<g id="node3" class="node"><title>Node2</title>
<a xlink:href="class_r_t_x_1_1_db_point_record.html" target="_top" xlink:title="A persistence layer for databases.">
<polygon fill="white" stroke="black" points="132.403,-19 132.403,-39 241.597,-39 241.597,-19 132.403,-19"/>
<text text-anchor="middle" x="187" y="-25" font-family="Helvetica,sans-Serif" font-size="10.00">RTX::DbPointRecord</text>
</a>
</g>
<!-- Node1&#45;&gt;Node2 -->
<g id="edge2" class="edge"><title>Node1&#45;&gt;Node2</title>
<path fill="none" stroke="midnightblue" d="M106.631,-29C115.031,-29 123.655,-29 131.98,-29"/>
<polygon fill="midnightblue" stroke="midnightblue" points="106.532,-25.5001 96.5315,-29 106.531,-32.5001 106.532,-25.5001"/>
</g>
<!-- Node3 -->
<g id="node5" class="node"><title>Node3</title>
<a xlink:href="class_r_t_x_1_1_mysql_point_record.html" target="_top" xlink:title="A persistence layer for MySQL databases.">
<polygon fill="white" stroke="black" points="279.738,-39 279.738,-59 402.262,-59 402.262,-39 279.738,-39"/>
<text text-anchor="middle" x="341" y="-45" font-family="Helvetica,sans-Serif" font-size="10.00">RTX::MysqlPointRecord</text>
</a>
</g>
<!-- Node2&#45;&gt;Node3 -->
<g id="edge4" class="edge"><title>Node2&#45;&gt;Node3</title>
<path fill="none" stroke="midnightblue" d="M252.184,-37.4452C261.301,-38.6449 270.651,-39.8752 279.692,-41.0647"/>
<polygon fill="midnightblue" stroke="midnightblue" points="252.389,-33.9421 242.017,-36.1076 251.475,-40.8823 252.389,-33.9421"/>
</g>
<!-- Node4 -->
<g id="node7" class="node"><title>Node4</title>
<a xlink:href="class_r_t_x_1_1_scada_point_record.html" target="_top" xlink:title="A persistence class for SCADA databases.">
<polygon fill="white" stroke="black" points="278.618,-0 278.618,-20 403.382,-20 403.382,-0 278.618,-0"/>
<text text-anchor="middle" x="341" y="-6" font-family="Helvetica,sans-Serif" font-size="10.00">RTX::ScadaPointRecord</text>
</a>
</g>
<!-- Node2&#45;&gt;Node4 -->
<g id="edge6" class="edge"><title>Node2&#45;&gt;Node4</title>
<path fill="none" stroke="midnightblue" d="M252.108,-20.9865C260.811,-19.8987 269.727,-18.7841 278.385,-17.7019"/>
<polygon fill="midnightblue" stroke="midnightblue" points="251.506,-17.5344 242.017,-22.2478 252.374,-24.4804 251.506,-17.5344"/>
</g>
</g>
</svg>
