<?xml version="1.0" encoding="UTF-8" standalone="no"?>
<!DOCTYPE svg PUBLIC "-//W3C//DTD SVG 1.1//EN"
 "http://www.w3.org/Graphics/SVG/1.1/DTD/svg11.dtd">
<!-- Generated by graphviz version 2.28.0 (20110509.1545)
 -->
<!-- Title: Graphical Class Hierarchy Pages: 1 -->
<svg width="426pt" height="164pt"
 viewBox="0.00 0.00 426.00 164.00" xmlns="http://www.w3.org/2000/svg" xmlns:xlink="http://www.w3.org/1999/xlink">
<g id="graph1" class="graph" transform="scale(1 1) rotate(0) translate(4 160)">
<title>Graphical Class Hierarchy</title>
<polygon fill="white" stroke="white" points="-4,5 -4,-160 423,-160 423,5 -4,5"/>
<!-- Node1 -->
<g id="node1" class="node"><title>Node1</title>
<a xlink:href="class_r_t_x_1_1_time_series.html" target="_top" xlink:title="Responsible for keeping a container of points &#45; also adding, retrieving, and getting information abou...">
<polygon fill="white" stroke="black" points="0.209473,-97 0.209473,-117 91.7905,-117 91.7905,-97 0.209473,-97"/>
<text text-anchor="middle" x="46" y="-103" font-family="Helvetica,sans-Serif" font-size="10.00">RTX::TimeSeries</text>
</a>
</g>
<!-- Node2 -->
<g id="node3" class="node"><title>Node2</title>
<a xlink:href="class_r_t_x_1_1_aggregator_time_series.html" target="_top" xlink:title="Aggregates (and optionally scales) arbitrary many input time series.">
<polygon fill="white" stroke="black" points="128.471,-136 128.471,-156 269.529,-156 269.529,-136 128.471,-136"/>
<text text-anchor="middle" x="199" y="-142" font-family="Helvetica,sans-Serif" font-size="10.00">RTX::AggregatorTimeSeries</text>
</a>
</g>
<!-- Node1&#45;&gt;Node2 -->
<g id="edge2" class="edge"><title>Node1&#45;&gt;Node2</title>
<path fill="none" stroke="midnightblue" d="M95.7063,-119.58C116.274,-124.892 139.89,-130.992 159.246,-135.991"/>
<polygon fill="midnightblue" stroke="midnightblue" points="96.4438,-116.155 85.8863,-117.043 94.6933,-122.933 96.4438,-116.155"/>
</g>
<!-- Node3 -->
<g id="node5" class="node"><title>Node3</title>
<a xlink:href="class_r_t_x_1_1_constant_series.html" target="_top" xlink:title="RTX::ConstantSeries">
<polygon fill="white" stroke="black" points="144.125,-97 144.125,-117 253.875,-117 253.875,-97 144.125,-97"/>
<text text-anchor="middle" x="199" y="-103" font-family="Helvetica,sans-Serif" font-size="10.00">RTX::ConstantSeries</text>
</a>
</g>
<!-- Node1&#45;&gt;Node3 -->
<g id="edge4" class="edge"><title>Node1&#45;&gt;Node3</title>
<path fill="none" stroke="midnightblue" d="M102.108,-107C115.75,-107 130.351,-107 143.942,-107"/>
<polygon fill="midnightblue" stroke="midnightblue" points="101.896,-103.5 91.8961,-107 101.896,-110.5 101.896,-103.5"/>
</g>
<!-- Node4 -->
<g id="node7" class="node"><title>Node4</title>
<a xlink:href="class_r_t_x_1_1_modular_time_series.html" target="_top" xlink:title="A Time Series class that allows a single upstream TimeSeries.">
<polygon fill="white" stroke="black" points="135.146,-58 135.146,-78 262.854,-78 262.854,-58 135.146,-58"/>
<text text-anchor="middle" x="199" y="-64" font-family="Helvetica,sans-Serif" font-size="10.00">RTX::ModularTimeSeries</text>
</a>
</g>
<!-- Node1&#45;&gt;Node4 -->
<g id="edge6" class="edge"><title>Node1&#45;&gt;Node4</title>
<path fill="none" stroke="midnightblue" d="M95.7063,-94.4202C116.274,-89.108 139.89,-83.0085 159.246,-78.0094"/>
<polygon fill="midnightblue" stroke="midnightblue" points="94.6933,-91.0669 85.8863,-96.9565 96.4438,-97.8445 94.6933,-91.0669"/>
</g>
<!-- Node5 -->
<g id="node9" class="node"><title>Node5</title>
<a xlink:href="class_r_t_x_1_1_curve_function.html" target="_top" xlink:title="A Curve Function Class to perform arbitrary mapping of values.">
<polygon fill="white" stroke="black" points="308.795,-117 308.795,-137 415.205,-137 415.205,-117 308.795,-117"/>
<text text-anchor="middle" x="362" y="-123" font-family="Helvetica,sans-Serif" font-size="10.00">RTX::CurveFunction</text>
</a>
</g>
<!-- Node4&#45;&gt;Node5 -->
<g id="edge8" class="edge"><title>Node4&#45;&gt;Node5</title>
<path fill="none" stroke="midnightblue" d="M250.234,-80.9837C256.953,-83.1172 263.696,-85.4678 270,-88 286.788,-94.7435 289.46,-99.6693 306,-107 313.988,-110.541 322.817,-113.959 331.019,-116.939"/>
<polygon fill="midnightblue" stroke="midnightblue" points="251.046,-77.5724 240.46,-78.0172 249.013,-84.2707 251.046,-77.5724"/>
</g>
<!-- Node6 -->
<g id="node11" class="node"><title>Node6</title>
<a xlink:href="class_r_t_x_1_1_first_derivative.html" target="_top" xlink:title="RTX::FirstDerivative">
<polygon fill="white" stroke="black" points="309.361,-78 309.361,-98 414.639,-98 414.639,-78 309.361,-78"/>
<text text-anchor="middle" x="362" y="-84" font-family="Helvetica,sans-Serif" font-size="10.00">RTX::FirstDerivative</text>
</a>
</g>
<!-- Node4&#45;&gt;Node6 -->
<g id="edge10" class="edge"><title>Node4&#45;&gt;Node6</title>
<path fill="none" stroke="midnightblue" d="M273.272,-77.1021C285.389,-78.6073 297.726,-80.1399 309.173,-81.5619"/>
<polygon fill="midnightblue" stroke="midnightblue" points="273.525,-73.6067 263.169,-75.8471 272.662,-80.5533 273.525,-73.6067"/>
</g>
<!-- Node7 -->
<g id="node13" class="node"><title>Node7</title>
<a xlink:href="class_r_t_x_1_1_moving_average.html" target="_top" xlink:title="RTX::MovingAverage">
<polygon fill="white" stroke="black" points="306.656,-39 306.656,-59 417.344,-59 417.344,-39 306.656,-39"/>
<text text-anchor="middle" x="362" y="-45" font-family="Helvetica,sans-Serif" font-size="10.00">RTX::MovingAverage</text>
</a>
</g>
<!-- Node4&#45;&gt;Node7 -->
<g id="edge12" class="edge"><title>Node4&#45;&gt;Node7</title>
<path fill="none" stroke="midnightblue" d="M273.368,-59.3416C284.558,-58.0212 295.932,-56.6788 306.618,-55.4177"/>
<polygon fill="midnightblue" stroke="midnightblue" points="272.69,-55.8973 263.169,-60.5452 273.511,-62.849 272.69,-55.8973"/>
</g>
<!-- Node8 -->
<g id="node15" class="node"><title>Node8</title>
<a xlink:href="class_r_t_x_1_1_resampler.html" target="_top" xlink:title="RTX::Resampler">
<polygon fill="white" stroke="black" points="317.135,-0 317.135,-20 406.865,-20 406.865,-0 317.135,-0"/>
<text text-anchor="middle" x="362" y="-6" font-family="Helvetica,sans-Serif" font-size="10.00">RTX::Resampler</text>
</a>
</g>
<!-- Node4&#45;&gt;Node8 -->
<g id="edge14" class="edge"><title>Node4&#45;&gt;Node8</title>
<path fill="none" stroke="midnightblue" d="M237.499,-54.491C266.689,-43.9752 306.557,-29.6131 333.008,-20.0842"/>
<polygon fill="midnightblue" stroke="midnightblue" points="236.266,-51.215 228.044,-57.8972 238.638,-57.8007 236.266,-51.215"/>
</g>
</g>
</svg>
